<svg width="78" height="78" viewBox="0 0 78 78" fill="none" xmlns="http://www.w3.org/2000/svg">
<mask id="mask0_45_1600" style="mask-type:luminance" maskUnits="userSpaceOnUse" x="0" y="0" width="51" height="45">
<path d="M0 0H50.3325V44.9902H0V0Z" fill="white"/>
</mask>
<g mask="url(#mask0_45_1600)">
<path d="M24.9962 -0.00518799C38.6282 -0.00518799 49.9872 4.63881 49.9872 18.8337C49.9872 24.8212 47.9666 29.1067 44.6051 32.062C43.9944 32.601 43.7342 33.4294 43.9466 34.2154C44.5414 36.4192 45.399 38.7372 46.5753 40.9013C47.478 42.5634 46.2593 44.5655 44.3714 44.5124C39.7991 44.3849 34.81 42.2554 31.0687 38.1903C30.6227 37.707 29.9854 37.4468 29.3296 37.4999C27.9196 37.6167 26.4699 37.6725 24.9962 37.6725C11.3616 37.6725 0.00256348 33.0285 0.00256348 18.8337C0.00256348 4.63881 11.3616 -0.00518799 24.9962 -0.00518799Z" fill="#B0DA87"/>
</g>
<path d="M12.9815 15.6367C12.9815 15.873 12.9522 16.1093 12.8938 16.3403C12.8381 16.5739 12.7504 16.7996 12.6363 17.02C12.5221 17.2378 12.384 17.4475 12.2167 17.644C12.0521 17.8405 11.8636 18.0237 11.6538 18.191C11.4414 18.3583 11.2131 18.5096 10.9661 18.6397C10.7165 18.7725 10.4563 18.884 10.1802 18.9743C9.9067 19.0646 9.62259 19.1336 9.33051 19.1814C9.03844 19.2265 8.74105 19.2504 8.44367 19.2504C8.14628 19.2504 7.85155 19.2265 7.55948 19.1814C7.2674 19.1336 6.98329 19.0646 6.70715 18.9743C6.43101 18.884 6.17079 18.7725 5.92386 18.6397C5.67427 18.5096 5.44592 18.3583 5.23615 18.191C5.02373 18.0237 4.83521 17.8405 4.67059 17.644C4.50596 17.4475 4.36524 17.2378 4.25106 17.02C4.13689 16.7996 4.05192 16.5739 3.99351 16.3403C3.93509 16.1093 3.90588 15.873 3.90588 15.6367C3.90588 15.4003 3.93509 15.164 3.99351 14.9304C4.05192 14.6994 4.13689 14.4737 4.25106 14.2533C4.36524 14.0356 4.50596 13.8258 4.67059 13.6293C4.83521 13.4328 5.02373 13.2496 5.23615 13.0823C5.44592 12.915 5.67427 12.7637 5.92386 12.6309C6.17079 12.5008 6.43101 12.3893 6.70715 12.299C6.98329 12.2088 7.2674 12.1397 7.55948 12.0919C7.85155 12.0468 8.14628 12.0229 8.44367 12.0229C8.74105 12.0229 9.03844 12.0468 9.33051 12.0919C9.62259 12.1397 9.9067 12.2088 10.1802 12.299C10.4563 12.3893 10.7165 12.5008 10.9661 12.6309C11.2131 12.7637 11.4414 12.915 11.6538 13.0823C11.8636 13.2496 12.0521 13.4328 12.2167 13.6293C12.384 13.8258 12.5221 14.0356 12.6363 14.2533C12.7504 14.4737 12.8381 14.6994 12.8938 14.9304C12.9522 15.164 12.9815 15.4003 12.9815 15.6367Z" fill="white"/>
<path d="M37.5821 15.6367C37.5821 15.873 37.5529 16.1093 37.4945 16.3403C37.4361 16.5739 37.3511 16.7996 37.237 17.02C37.1228 17.2378 36.982 17.4475 36.8174 17.644C36.6501 17.8405 36.4643 18.0237 36.2519 18.191C36.0421 18.3583 35.8137 18.5096 35.5642 18.6397C35.3172 18.7725 35.0544 18.884 34.7809 18.9743C34.5047 19.0646 34.2206 19.1336 33.9285 19.1814C33.6365 19.2265 33.3417 19.2504 33.0443 19.2504C32.7443 19.2504 32.4496 19.2265 32.1575 19.1814C31.8654 19.1336 31.5813 19.0646 31.3078 18.9743C31.0317 18.884 30.7688 18.7725 30.5219 18.6397C30.2749 18.5096 30.0439 18.3583 29.8342 18.191C29.6244 18.0237 29.4359 17.8405 29.2713 17.644C29.104 17.4475 28.9659 17.2378 28.8517 17.02C28.7376 16.7996 28.6499 16.5739 28.5915 16.3403C28.5331 16.1093 28.5039 15.873 28.5039 15.6367C28.5039 15.4003 28.5331 15.164 28.5915 14.9304C28.6499 14.6994 28.7376 14.4737 28.8517 14.2533C28.9659 14.0356 29.104 13.8258 29.2713 13.6293C29.4359 13.4328 29.6244 13.2496 29.8342 13.0823C30.0439 12.915 30.2749 12.7637 30.5219 12.6309C30.7688 12.5008 31.0317 12.3893 31.3078 12.299C31.5813 12.2088 31.8654 12.1397 32.1575 12.0919C32.4496 12.0468 32.7443 12.0229 33.0443 12.0229C33.3417 12.0229 33.6365 12.0468 33.9285 12.0919C34.2206 12.1397 34.5047 12.2088 34.7809 12.299C35.0544 12.3893 35.3172 12.5008 35.5642 12.6309C35.8137 12.7637 36.0421 12.915 36.2519 13.0823C36.4643 13.2496 36.6501 13.4328 36.8174 13.6293C36.982 13.8258 37.1228 14.0356 37.237 14.2533C37.3511 14.4737 37.4361 14.6994 37.4945 14.9304C37.5529 15.164 37.5821 15.4003 37.5821 15.6367Z" fill="white"/>
<path d="M13.2496 12.846C12.6177 12.846 12.1079 12.3362 12.1079 11.7043C12.1079 11.144 11.6512 10.6873 11.0883 10.6873C10.528 10.6873 10.0713 11.144 10.0713 11.7043C10.0713 12.3362 9.55885 12.846 8.92956 12.846C8.29761 12.846 7.78516 12.3362 7.78516 11.7043C7.78516 9.88277 9.26677 8.40381 11.0883 8.40381C12.9097 8.40381 14.3914 9.88277 14.3914 11.7043C14.3914 12.3362 13.8789 12.846 13.2496 12.846Z" fill="#4E5660"/>
<path d="M32.5585 12.846C31.9265 12.846 31.4167 12.3362 31.4167 11.7043C31.4167 11.144 30.96 10.6873 30.3998 10.6873C29.8369 10.6873 29.3802 11.144 29.3802 11.7043C29.3802 12.3362 28.8704 12.846 28.2384 12.846C27.6065 12.846 27.0967 12.3362 27.0967 11.7043C27.0967 9.88277 28.5783 8.40381 30.3998 8.40381C32.2186 8.40381 33.7002 9.88277 33.7002 11.7043C33.7002 12.3362 33.1904 12.846 32.5585 12.846Z" fill="#4E5660"/>
<path d="M20.7426 16.4146C19.5345 16.4146 18.3874 15.8915 17.5909 14.9781C17.1767 14.5028 17.2271 13.7833 17.7024 13.3691C18.1777 12.9522 18.8999 13.0026 19.3141 13.4779C19.6752 13.8921 20.1956 14.1311 20.7426 14.1311C21.2923 14.1311 21.8127 13.8921 22.1738 13.4779C22.588 13.0026 23.3102 12.9522 23.7855 13.3691C24.2608 13.7833 24.3113 14.5028 23.897 14.9781C23.1005 15.8915 21.9534 16.4146 20.7426 16.4146Z" fill="#4E5660"/>
<mask id="mask1_45_1600" style="mask-type:luminance" maskUnits="userSpaceOnUse" x="27" y="14" width="51" height="46">
<path d="M27.9011 14.4019H78V59.2647H27.9011V14.4019Z" fill="white"/>
</mask>
<g mask="url(#mask1_45_1600)">
<path d="M53.0064 14.4019C66.6383 14.4019 77.9974 19.0459 77.9974 33.2408C77.9974 39.2256 75.9768 43.5138 72.6179 46.4691C72.0072 47.0055 71.747 47.8366 71.9568 48.6198C72.5515 50.8263 73.4092 53.1444 74.5881 55.3084C75.4909 56.9679 74.2721 58.9699 72.3816 58.9195C67.8093 58.792 62.8201 56.6625 59.0789 52.5974C58.6355 52.1141 57.9982 51.8539 57.3424 51.907C55.9298 52.0212 54.4827 52.077 53.0064 52.077C39.3744 52.077 28.0154 47.433 28.0154 33.2408C28.0154 19.0459 39.3744 14.4019 53.0064 14.4019Z" fill="#8DAEE1"/>
</g>
<path d="M45.1574 33.0603C40.8984 30.3094 35.3171 28.719 28.5383 28.3154C28.1958 29.8103 28.0153 31.4485 28.0153 33.2408C28.0153 47.433 39.3743 52.077 53.0063 52.077C53.5718 52.077 54.1347 52.0664 54.6923 52.0505C54.6923 51.9522 54.695 51.854 54.695 51.7557C54.695 43.5564 51.3972 37.0909 45.1574 33.0603Z" fill="#6A95D6"/>
<path d="M61.1366 39.7355L54.4799 22.1021C54.4773 22.0915 54.472 22.0809 54.4693 22.0702C54.2303 21.4887 53.6674 21.1117 53.0381 21.1117H53.0355C52.4062 21.1117 51.8433 21.4887 51.6043 22.0729C51.6017 22.0835 51.5964 22.0915 51.5937 22.0994L44.876 39.7328C44.6529 40.3223 44.9477 40.9834 45.5371 41.2065C46.1266 41.4322 46.7877 41.1348 47.0108 40.5453L48.4048 36.8891H57.6211L58.9991 40.5427C59.1717 40.9994 59.6072 41.2808 60.0692 41.2808C60.2019 41.2808 60.3374 41.2569 60.4728 41.2091C61.0622 40.9861 61.3596 40.3276 61.1366 39.7355ZM49.2757 34.6056L53.0328 24.7387L56.7581 34.6056H49.2757Z" fill="white"/>
<mask id="mask2_45_1600" style="mask-type:luminance" maskUnits="userSpaceOnUse" x="0" y="32" width="51" height="46">
<path d="M0 32.7549H50.3325V77.4902H0V32.7549Z" fill="white"/>
</mask>
<g mask="url(#mask2_45_1600)">
<path d="M24.9963 32.9195C11.3618 32.9195 0.00268555 37.5635 0.00268555 51.7557C0.00268555 57.7432 2.02597 62.0288 5.38483 64.9867C5.99554 65.523 6.25575 66.3541 6.04333 67.1374C5.44856 69.3439 4.59092 71.6619 3.41465 73.8259C2.51188 75.4855 3.73063 77.4875 5.62115 77.4344C10.1908 77.3069 15.1826 75.1775 18.9212 71.1123C19.3673 70.629 20.0045 70.3688 20.6604 70.4246C22.0703 70.5388 23.52 70.5945 24.9963 70.5945C38.6283 70.5945 49.9874 65.9505 49.9874 51.7557C49.9874 37.5635 38.6283 32.9195 24.9963 32.9195Z" fill="#FBF1CF"/>
</g>
<mask id="mask3_45_1600" style="mask-type:luminance" maskUnits="userSpaceOnUse" x="0" y="33" width="30" height="45">
<path d="M0 33.4346H29.9404V77.4902H0V33.4346Z" fill="white"/>
</mask>
<g mask="url(#mask3_45_1600)">
<path d="M14.9569 33.9524C6.21061 35.9916 0.00268555 41.2622 0.00268555 51.7557C0.00268555 57.7432 2.02597 62.0288 5.38483 64.9867C5.99554 65.5231 6.25575 66.3541 6.04333 67.1374C5.44856 69.3439 4.59092 71.6619 3.41465 73.826C2.51188 75.4855 3.73063 77.4875 5.62115 77.4344C10.1908 77.307 15.1826 75.1775 18.9212 71.1123C19.3673 70.6291 20.0045 70.3689 20.6604 70.4246C22.0703 70.5388 23.52 70.5945 24.9963 70.5945C26.5151 70.5945 28.0074 70.5361 29.4571 70.414C12.8487 65.3213 10.1642 41.7747 14.9569 33.9524Z" fill="#FAE0BD"/>
</g>
<path d="M32.8983 43.7555H26.154V40.7153C26.154 40.086 25.6442 39.5735 25.0123 39.5735C24.3803 39.5735 23.8705 40.086 23.8705 40.7153V43.7555H17.1262C16.4943 43.7555 15.9845 44.268 15.9845 44.8973C15.9845 45.5292 16.4943 46.039 17.1262 46.039H28.2782C28.0286 48.8429 26.6718 51.9177 24.6246 54.6048C23.4855 53.5852 22.5562 52.4169 21.9694 51.3176C21.6747 50.76 20.9816 50.5503 20.424 50.845C19.8691 51.1424 19.6567 51.8354 19.9541 52.3903C20.6471 53.6914 21.7543 55.1093 23.151 56.3493C21.9296 57.6477 20.5488 58.8001 19.0619 59.7108C18.5256 60.04 18.3556 60.7437 18.6849 61.2827C18.9026 61.6332 19.277 61.827 19.6593 61.827C19.8638 61.827 20.0709 61.7713 20.2568 61.6571C21.9322 60.6295 23.536 59.2886 24.9618 57.7406C26.324 58.6328 27.856 59.3152 29.4837 59.6099C29.5527 59.6232 29.6217 59.6285 29.6908 59.6285C30.2325 59.6285 30.713 59.2435 30.8139 58.6912C30.9255 58.0699 30.5139 57.4778 29.8926 57.3636C28.6898 57.1432 27.5162 56.6414 26.4461 55.9749C26.8099 55.497 27.1577 55.0057 27.4843 54.5039C29.3191 51.6814 30.3758 48.7766 30.5697 46.039H32.8983C33.5302 46.039 34.0401 45.5292 34.0401 44.8973C34.0401 44.2653 33.5302 43.7555 32.8983 43.7555Z" fill="#4E5660"/>
</svg>
