<svg width="142" height="29" viewBox="0 0 142 29" fill="none" xmlns="http://www.w3.org/2000/svg">
<g clip-path="url(#clip0_95_1648)">
<mask id="mask0_95_1648" style="mask-type:luminance" maskUnits="userSpaceOnUse" x="0" y="0" width="19" height="17">
<path d="M0.5 0H18.5681V16.8372H0.5V0Z" fill="white"/>
</mask>
<g mask="url(#mask0_95_1648)">
<path d="M9.47306 -0.00193787C14.3666 -0.00193787 18.4442 1.73603 18.4442 7.04833C18.4442 9.28911 17.7188 10.8929 16.5121 11.9989C16.2929 12.2006 16.1995 12.5107 16.2758 12.8048C16.4893 13.6296 16.7971 14.4971 17.2194 15.3069C17.5435 15.929 17.106 16.6782 16.4283 16.6584C14.7869 16.6107 12.9959 15.8137 11.6529 14.2924C11.4928 14.1115 11.2641 14.0141 11.0286 14.034C10.5225 14.0777 10.0021 14.0986 9.47306 14.0986C4.57859 14.0986 0.500977 12.3606 0.500977 7.04833C0.500977 1.73603 4.57859 -0.00193787 9.47306 -0.00193787Z" fill="#B0DA87"/>
</g>
<path d="M5.16 5.85187C5.16 5.94031 5.14951 6.02875 5.12854 6.1152C5.10853 6.20265 5.07707 6.28711 5.03609 6.36959C4.9951 6.45107 4.94554 6.52957 4.88549 6.60311C4.82639 6.67664 4.75872 6.74521 4.68342 6.80781C4.60717 6.87041 4.52519 6.92705 4.43655 6.97574C4.34695 7.02543 4.25354 7.06716 4.15441 7.10095C4.05624 7.13473 3.95425 7.16057 3.8494 7.17846C3.74456 7.19535 3.6378 7.20429 3.53105 7.20429C3.42429 7.20429 3.31849 7.19535 3.21365 7.17846C3.1088 7.16057 3.00681 7.13473 2.90768 7.10095C2.80855 7.06716 2.71514 7.02543 2.6265 6.97574C2.5369 6.92705 2.45493 6.87041 2.37963 6.80781C2.30338 6.74521 2.23571 6.67664 2.17661 6.60311C2.11751 6.52957 2.067 6.45107 2.02601 6.36959C1.98502 6.28711 1.95452 6.20265 1.93355 6.1152C1.91258 6.02875 1.9021 5.94031 1.9021 5.85187C1.9021 5.76343 1.91258 5.675 1.93355 5.58755C1.95452 5.5011 1.98502 5.41664 2.02601 5.33416C2.067 5.25268 2.11751 5.17417 2.17661 5.10064C2.23571 5.02711 2.30338 4.95854 2.37963 4.89594C2.45493 4.83334 2.5369 4.7767 2.6265 4.72701C2.71514 4.67832 2.80855 4.63658 2.90768 4.6028C3.00681 4.56901 3.1088 4.54318 3.21365 4.52529C3.31849 4.5084 3.42429 4.49945 3.53105 4.49945C3.6378 4.49945 3.74456 4.5084 3.8494 4.52529C3.95425 4.54318 4.05624 4.56901 4.15441 4.6028C4.25354 4.63658 4.34695 4.67832 4.43655 4.72701C4.52519 4.7767 4.60717 4.83334 4.68342 4.89594C4.75872 4.95854 4.82639 5.02711 4.88549 5.10064C4.94554 5.17417 4.9951 5.25268 5.03609 5.33416C5.07707 5.41664 5.10853 5.5011 5.12854 5.58755C5.14951 5.675 5.16 5.76343 5.16 5.85187Z" fill="white"/>
<path d="M13.991 5.85187C13.991 5.94031 13.9805 6.02875 13.9596 6.1152C13.9386 6.20265 13.9081 6.28711 13.8671 6.36959C13.8261 6.45107 13.7756 6.52957 13.7165 6.60311C13.6565 6.67664 13.5897 6.74521 13.5135 6.80781C13.4382 6.87041 13.3562 6.92705 13.2666 6.97574C13.178 7.02543 13.0836 7.06716 12.9854 7.10095C12.8863 7.13473 12.7843 7.16057 12.6795 7.17846C12.5746 7.19535 12.4688 7.20429 12.3621 7.20429C12.2544 7.20429 12.1486 7.19535 12.0437 7.17846C11.9389 7.16057 11.8369 7.13473 11.7387 7.10095C11.6396 7.06716 11.5452 7.02543 11.4566 6.97574C11.3679 6.92705 11.285 6.87041 11.2097 6.80781C11.1344 6.74521 11.0667 6.67664 11.0076 6.60311C10.9476 6.52957 10.898 6.45107 10.857 6.36959C10.8161 6.28711 10.7846 6.20265 10.7636 6.1152C10.7427 6.02875 10.7322 5.94031 10.7322 5.85187C10.7322 5.76343 10.7427 5.675 10.7636 5.58755C10.7846 5.5011 10.8161 5.41664 10.857 5.33416C10.898 5.25268 10.9476 5.17417 11.0076 5.10064C11.0667 5.02711 11.1344 4.95854 11.2097 4.89594C11.285 4.83334 11.3679 4.7767 11.4566 4.72701C11.5452 4.67832 11.6396 4.63658 11.7387 4.6028C11.8369 4.56901 11.9389 4.54318 12.0437 4.52529C12.1486 4.5084 12.2544 4.49945 12.3621 4.49945C12.4688 4.49945 12.5746 4.5084 12.6795 4.52529C12.7843 4.54318 12.8863 4.56901 12.9854 4.6028C13.0836 4.63658 13.178 4.67832 13.2666 4.72701C13.3562 4.7767 13.4382 4.83334 13.5135 4.89594C13.5897 4.95854 13.6565 5.02711 13.7165 5.10064C13.7756 5.17417 13.8261 5.25268 13.8671 5.33416C13.9081 5.41664 13.9386 5.5011 13.9596 5.58755C13.9805 5.675 13.991 5.76343 13.991 5.85187Z" fill="white"/>
<path d="M5.25628 4.8075C5.02943 4.8075 4.84642 4.61671 4.84642 4.38021C4.84642 4.17054 4.68248 3.99962 4.48041 3.99962C4.27929 3.99962 4.11535 4.17054 4.11535 4.38021C4.11535 4.61671 3.93139 4.8075 3.70549 4.8075C3.47864 4.8075 3.29468 4.61671 3.29468 4.38021C3.29468 3.69853 3.82654 3.14504 4.48041 3.14504C5.13427 3.14504 5.66614 3.69853 5.66614 4.38021C5.66614 4.61671 5.48218 4.8075 5.25628 4.8075Z" fill="#4E5660"/>
<path d="M12.1877 4.8075C11.9608 4.8075 11.7778 4.61671 11.7778 4.38021C11.7778 4.17054 11.6139 3.99962 11.4128 3.99962C11.2107 3.99962 11.0468 4.17054 11.0468 4.38021C11.0468 4.61671 10.8638 4.8075 10.6369 4.8075C10.4101 4.8075 10.2271 4.61671 10.2271 4.38021C10.2271 3.69853 10.7589 3.14504 11.4128 3.14504C12.0657 3.14504 12.5976 3.69853 12.5976 4.38021C12.5976 4.61671 12.4146 4.8075 12.1877 4.8075Z" fill="#4E5660"/>
<path d="M7.9461 6.14302C7.51242 6.14302 7.10065 5.94726 6.8147 5.60543C6.66601 5.42756 6.68412 5.15827 6.85474 5.00325C7.02535 4.84724 7.28461 4.86612 7.43331 5.044C7.56293 5.19901 7.74975 5.28844 7.9461 5.28844C8.14341 5.28844 8.33023 5.19901 8.45986 5.044C8.60855 4.86612 8.86781 4.84724 9.03843 5.00325C9.20904 5.15827 9.22715 5.42756 9.07846 5.60543C8.79251 5.94726 8.38075 6.14302 7.9461 6.14302Z" fill="#4E5660"/>
<mask id="mask1_95_1648" style="mask-type:luminance" maskUnits="userSpaceOnUse" x="10" y="5" width="19" height="18">
<path d="M10.5159 5.3898H28.5001V22.1793H10.5159V5.3898Z" fill="white"/>
</mask>
<g mask="url(#mask1_95_1648)">
<path d="M19.528 5.38979C24.4215 5.38979 28.4992 7.12777 28.4992 12.4401C28.4992 14.6799 27.7738 16.2847 26.5681 17.3907C26.3488 17.5914 26.2554 17.9024 26.3307 18.1955C26.5442 19.0213 26.8521 19.8888 27.2753 20.6987C27.5994 21.3197 27.1619 22.069 26.4832 22.0501C24.8419 22.0024 23.0509 21.2054 21.7079 19.6841C21.5487 19.5032 21.32 19.4059 21.0845 19.4257C20.5774 19.4685 20.058 19.4893 19.528 19.4893C14.6345 19.4893 10.5569 17.7514 10.5569 12.4401C10.5569 7.12777 14.6345 5.38979 19.528 5.38979Z" fill="#8DAEE1"/>
</g>
<path d="M16.7104 12.3725C15.1815 11.343 13.178 10.7478 10.7445 10.5968C10.6216 11.1562 10.5568 11.7693 10.5568 12.4401C10.5568 17.7514 14.6344 19.4893 19.5279 19.4893C19.7309 19.4893 19.933 19.4854 20.1332 19.4794C20.1332 19.4426 20.1341 19.4059 20.1341 19.3691C20.1341 16.3006 18.9503 13.8809 16.7104 12.3725Z" fill="#6A95D6"/>
<path d="M22.4465 14.8706L20.0569 8.27152C20.056 8.26754 20.0541 8.26357 20.0531 8.2596C19.9673 8.04198 19.7653 7.90087 19.5394 7.90087H19.5384C19.3125 7.90087 19.1105 8.04198 19.0247 8.26059C19.0237 8.26456 19.0218 8.26754 19.0209 8.27053L16.6094 14.8697C16.5293 15.0903 16.6351 15.3377 16.8467 15.4212C17.0583 15.5056 17.2956 15.3943 17.3757 15.1737L17.8761 13.8054H21.1845L21.6792 15.1727C21.7412 15.3436 21.8975 15.449 22.0633 15.449C22.111 15.449 22.1596 15.44 22.2082 15.4222C22.4198 15.3387 22.5266 15.0922 22.4465 14.8706ZM18.1888 12.9508L19.5375 9.25826L20.8748 12.9508H18.1888Z" fill="white"/>
<mask id="mask2_95_1648" style="mask-type:luminance" maskUnits="userSpaceOnUse" x="0" y="12" width="19" height="17">
<path d="M0.5 12.2582H18.5681V29H0.5V12.2582Z" fill="white"/>
</mask>
<g mask="url(#mask2_95_1648)">
<path d="M9.47306 12.3198C4.57859 12.3198 0.500977 14.0578 0.500977 19.3691C0.500977 21.6099 1.22728 23.2137 2.43303 24.3207C2.65226 24.5214 2.74567 24.8324 2.66941 25.1256C2.45591 25.9513 2.14804 26.8188 1.72579 27.6287C1.40171 28.2498 1.83921 28.999 2.51786 28.9791C4.15825 28.9314 5.95019 28.1345 7.29224 26.6131C7.45237 26.4323 7.68112 26.3349 7.91655 26.3558C8.42268 26.3985 8.94311 26.4194 9.47306 26.4194C14.3666 26.4194 18.4442 24.6814 18.4442 19.3691C18.4442 14.0578 14.3666 12.3198 9.47306 12.3198Z" fill="#FBF1CF"/>
</g>
<mask id="mask3_95_1648" style="mask-type:luminance" maskUnits="userSpaceOnUse" x="0" y="12" width="12" height="17">
<path d="M0.5 12.5126H11.2478V29H0.5V12.5126Z" fill="white"/>
</mask>
<g mask="url(#mask3_95_1648)">
<path d="M5.86917 12.7064C2.72946 13.4695 0.500977 15.442 0.500977 19.3691C0.500977 21.6099 1.22728 23.2137 2.43303 24.3207C2.65226 24.5214 2.74567 24.8324 2.66941 25.1256C2.45591 25.9513 2.14804 26.8188 1.72579 27.6287C1.40171 28.2498 1.83921 28.999 2.51786 28.9791C4.15825 28.9314 5.95019 28.1345 7.29224 26.6131C7.45237 26.4323 7.68113 26.3349 7.91656 26.3558C8.42268 26.3985 8.94311 26.4194 9.47306 26.4194C10.0183 26.4194 10.5539 26.3975 11.0744 26.3518C5.11236 24.4459 4.14872 15.6338 5.86917 12.7064Z" fill="#FAE0BD"/>
</g>
<path d="M12.3097 16.3751H9.88864V15.2373C9.88864 15.0018 9.70563 14.81 9.47878 14.81C9.25193 14.81 9.06892 15.0018 9.06892 15.2373V16.3751H6.6479C6.42104 16.3751 6.23804 16.5669 6.23804 16.8024C6.23804 17.0389 6.42104 17.2297 6.6479 17.2297H10.6512C10.5616 18.279 10.0745 19.4297 9.33962 20.4353C8.93071 20.0538 8.59711 19.6165 8.38646 19.2051C8.28066 18.9965 8.03188 18.918 7.83172 19.0283C7.63251 19.1396 7.55626 19.3989 7.66301 19.6066C7.91178 20.0935 8.30925 20.6241 8.81061 21.0882C8.37216 21.5741 7.87652 22.0054 7.34275 22.3462C7.15021 22.4694 7.08921 22.7328 7.2074 22.9345C7.28556 23.0657 7.41995 23.1382 7.55721 23.1382C7.6306 23.1382 7.70495 23.1173 7.77167 23.0746C8.37311 22.69 8.94882 22.1882 9.46067 21.6089C9.94964 21.9428 10.4996 22.1982 11.0839 22.3085C11.1087 22.3134 11.1335 22.3154 11.1582 22.3154C11.3527 22.3154 11.5252 22.1713 11.5614 21.9646C11.6015 21.7321 11.4537 21.5105 11.2307 21.4678C10.7989 21.3853 10.3776 21.1975 9.99348 20.9481C10.1241 20.7692 10.2489 20.5854 10.3662 20.3976C11.0248 19.3413 11.4042 18.2542 11.4737 17.2297H12.3097C12.5365 17.2297 12.7195 17.0389 12.7195 16.8024C12.7195 16.5659 12.5365 16.3751 12.3097 16.3751Z" fill="#4E5660"/>
<path d="M47.66 10.784C48.476 10.784 49.028 11.288 49.028 12.032V21.752C49.028 22.496 48.476 23 47.66 23C46.868 23 46.412 22.592 46.316 21.992C45.212 22.856 43.772 23.24 42.572 23.24C39.092 23.24 36.98 20.72 36.98 16.856C36.98 13.136 39.356 10.544 42.884 10.544C43.916 10.544 45.26 10.928 46.316 11.744C46.436 11.168 46.892 10.784 47.66 10.784ZM42.86 20.816C44.276 20.816 45.74 20.192 46.292 18.968V14.816C45.692 13.64 44.324 12.968 43.076 12.968C41.06 12.968 39.716 14.6 39.716 16.88C39.716 19.256 40.964 20.816 42.86 20.816ZM59.3771 10.544C62.7131 10.544 64.6571 12.896 64.6571 16.328V21.752C64.6571 22.496 64.1531 23 63.2891 23C62.4731 23 61.9211 22.496 61.9211 21.752V16.28C61.9211 14.288 61.0091 12.944 58.9691 12.944C57.7211 12.944 55.2251 14.24 55.2251 17.048V21.776C55.2251 22.544 54.7691 23 53.9051 23C53.0651 23 52.4891 22.544 52.4891 21.776V12.008C52.4891 11.216 53.1611 10.784 53.8571 10.784C54.5291 10.784 55.2251 11.216 55.2251 11.96V12.128C56.5931 10.856 58.1531 10.544 59.3771 10.544ZM77.4262 10.784C78.2422 10.784 79.0102 11.624 78.6742 12.584L71.6662 26.336C71.3542 26.936 70.8262 27.32 70.2742 27.32C69.4342 27.32 68.6662 26.384 69.1462 25.424L70.9702 21.824L66.2422 12.68C65.8102 11.72 66.6262 10.784 67.4902 10.784C67.9942 10.784 68.5222 11.144 68.7622 11.648L72.4582 18.872L76.1542 11.624C76.3702 11.12 76.8502 10.784 77.4262 10.784ZM86.7641 20.72C87.8441 20.12 88.7561 20.84 88.7561 21.68C88.7561 22.088 88.5161 22.544 87.9641 22.832C87.2441 23.216 86.7641 23.24 85.9961 23.24C82.8761 23.24 82.1321 21.056 82.1321 18.728V13.064H81.2201C80.3321 13.064 79.9001 12.488 79.9001 11.936C79.9001 11.36 80.3561 10.784 81.2201 10.784H82.1321V8.72C82.1321 7.904 82.7801 7.472 83.4761 7.472C84.1481 7.472 84.8441 7.904 84.8441 8.72V10.784H86.7161C87.5561 10.784 88.0121 11.36 88.0121 11.936C88.0121 12.512 87.5561 13.064 86.7161 13.064H84.8441V18.728C84.8441 19.784 84.9641 20.888 85.9961 20.888C86.2361 20.888 86.5961 20.792 86.7641 20.72ZM95.8784 10.784C96.7424 10.784 97.2944 11.144 97.2944 11.96C97.2944 12.728 96.7424 13.208 95.8784 13.208C93.8624 13.208 93.1424 14.744 93.1424 17.216V21.776C93.1424 22.496 92.5424 23 91.8224 23C90.9824 23 90.4304 22.496 90.4304 21.776V12.008C90.4304 11.24 91.1504 10.784 91.8224 10.784C92.4944 10.784 93.1424 11.216 93.1424 12.008V12.152C93.8384 11.216 94.7744 10.784 95.8784 10.784ZM108.644 10.784C109.46 10.784 110.012 11.288 110.012 12.032V21.752C110.012 22.496 109.46 23 108.644 23C107.852 23 107.396 22.592 107.3 21.992C106.196 22.856 104.756 23.24 103.556 23.24C100.076 23.24 97.9644 20.72 97.9644 16.856C97.9644 13.136 100.34 10.544 103.868 10.544C104.9 10.544 106.244 10.928 107.3 11.744C107.42 11.168 107.876 10.784 108.644 10.784ZM103.844 20.816C105.26 20.816 106.724 20.192 107.276 18.968V14.816C106.676 13.64 105.308 12.968 104.06 12.968C102.044 12.968 100.7 14.6 100.7 16.88C100.7 19.256 101.948 20.816 103.844 20.816ZM120.361 10.544C123.697 10.544 125.641 12.896 125.641 16.328V21.752C125.641 22.496 125.137 23 124.273 23C123.457 23 122.905 22.496 122.905 21.752V16.28C122.905 14.288 121.993 12.944 119.953 12.944C118.705 12.944 116.209 14.24 116.209 17.048V21.776C116.209 22.544 115.753 23 114.889 23C114.049 23 113.473 22.544 113.473 21.776V12.008C113.473 11.216 114.145 10.784 114.841 10.784C115.513 10.784 116.209 11.216 116.209 11.96V12.128C117.577 10.856 119.137 10.544 120.361 10.544ZM128.054 20.144C127.814 19.256 128.654 18.656 129.422 18.656C129.998 18.656 130.478 18.992 130.694 19.664C130.982 20.528 132.422 20.888 133.718 20.888C135.446 20.888 136.598 20.192 136.598 19.232C136.598 18.224 135.158 18.128 133.622 18.008C130.958 17.768 128.126 17.528 128.126 14.384C128.126 12.08 130.286 10.544 133.526 10.544C135.398 10.544 138.014 10.88 138.902 13.16C139.214 14.144 138.326 14.768 137.558 14.768C136.982 14.768 136.622 14.576 136.382 14.024C135.926 13.016 134.39 12.92 133.526 12.92C131.918 12.92 130.862 13.52 130.862 14.408C130.862 15.584 132.134 15.368 133.766 15.56C136.454 15.872 139.334 16.064 139.334 19.232C139.334 21.608 137.078 23.24 133.718 23.24C131.702 23.24 128.75 22.808 128.054 20.144Z" fill="#19398F"/>
</g>
<defs>
<clipPath id="clip0_95_1648">
<rect width="141" height="29" fill="white" transform="translate(0.5)"/>
</clipPath>
</defs>
</svg>
