<svg width="356" height="137" viewBox="0 0 356 137" fill="none" xmlns="http://www.w3.org/2000/svg">
<mask id="mask0_130_419" style="mask-type:luminance" maskUnits="userSpaceOnUse" x="269" y="0" width="57" height="52">
<path d="M269.739 0.888672H325.411V51.2035H269.739V0.888672Z" fill="white"/>
</mask>
<g mask="url(#mask0_130_419)">
<path d="M297.379 0.884521C312.458 0.884521 325.022 6.05069 325.022 21.852C325.022 28.5164 322.787 33.2866 319.068 36.5781C318.393 37.1758 318.106 38.0996 318.342 38.9729C318.998 41.4298 319.945 44.011 321.25 46.4175C322.247 48.265 320.9 50.4968 318.808 50.4386C313.755 50.295 308.235 47.9273 304.098 43.4016C303.605 42.8621 302.902 42.5749 302.176 42.6331C300.616 42.7612 299.013 42.8233 297.379 42.8233C282.303 42.8233 269.739 37.6532 269.739 21.852C269.739 6.05069 282.303 0.884521 297.379 0.884521Z" fill="#B0DA87"/>
</g>
<path d="M284.093 18.2929C284.093 18.5568 284.062 18.8208 284 19.0769C283.934 19.337 283.837 19.5893 283.712 19.8338C283.584 20.0783 283.433 20.3073 283.247 20.5286C283.064 20.7498 282.858 20.9517 282.626 21.138C282.393 21.3243 282.137 21.4912 281.865 21.6387C281.589 21.7862 281.302 21.9104 280.995 22.0113C280.693 22.1122 280.378 22.1859 280.056 22.2403C279.73 22.2907 279.404 22.3179 279.074 22.3179C278.744 22.3179 278.418 22.2907 278.096 22.2403C277.774 22.1859 277.459 22.1122 277.153 22.0113C276.85 21.9104 276.559 21.7862 276.287 21.6387C276.012 21.4912 275.759 21.3243 275.526 21.138C275.294 20.9517 275.084 20.7498 274.902 20.5286C274.719 20.3073 274.564 20.0783 274.44 19.8338C274.312 19.5893 274.215 19.337 274.152 19.0769C274.086 18.8208 274.055 18.5568 274.055 18.2929C274.055 18.0289 274.086 17.7689 274.152 17.5088C274.215 17.2488 274.312 17.0004 274.44 16.7558C274.564 16.5113 274.719 16.2784 274.902 16.0611C275.084 15.8398 275.294 15.638 275.526 15.4478C275.759 15.2615 276.012 15.0946 276.287 14.951C276.559 14.8035 276.85 14.6793 277.153 14.5784C277.459 14.4774 277.774 14.3998 278.096 14.3494C278.418 14.2989 278.744 14.2717 279.074 14.2717C279.404 14.2717 279.73 14.2989 280.056 14.3494C280.378 14.3998 280.693 14.4774 280.995 14.5784C281.302 14.6793 281.589 14.8035 281.865 14.951C282.137 15.0946 282.393 15.2615 282.626 15.4478C282.858 15.638 283.064 15.8398 283.247 16.0611C283.433 16.2784 283.584 16.5113 283.712 16.7558C283.837 17.0004 283.934 17.2488 284 17.5088C284.062 17.7689 284.093 18.0289 284.093 18.2929Z" fill="white"/>
<path d="M311.302 18.2929C311.302 18.5568 311.27 18.8208 311.205 19.0769C311.142 19.337 311.045 19.5893 310.917 19.8338C310.793 20.0783 310.638 20.3073 310.455 20.5286C310.273 20.7498 310.063 20.9517 309.83 21.138C309.598 21.3243 309.345 21.4912 309.07 21.6387C308.798 21.7862 308.507 21.9104 308.204 22.0113C307.898 22.1122 307.583 22.1859 307.261 22.2403C306.939 22.2907 306.613 22.3179 306.283 22.3179C305.953 22.3179 305.627 22.2907 305.301 22.2403C304.979 22.1859 304.664 22.1122 304.362 22.0113C304.055 21.9104 303.768 21.7862 303.492 21.6387C303.22 21.4912 302.964 21.3243 302.731 21.138C302.498 20.9517 302.293 20.7498 302.11 20.5286C301.924 20.3073 301.773 20.0783 301.645 19.8338C301.52 19.5893 301.423 19.337 301.357 19.0769C301.295 18.8208 301.264 18.5568 301.264 18.2929C301.264 18.0289 301.295 17.7689 301.357 17.5088C301.423 17.2488 301.52 17.0004 301.645 16.7558C301.773 16.5113 301.924 16.2784 302.11 16.0611C302.293 15.8398 302.498 15.638 302.731 15.4478C302.964 15.2615 303.22 15.0946 303.492 14.951C303.768 14.8035 304.055 14.6793 304.362 14.5784C304.664 14.4774 304.979 14.3998 305.301 14.3494C305.627 14.2989 305.953 14.2717 306.283 14.2717C306.613 14.2717 306.939 14.2989 307.261 14.3494C307.583 14.3998 307.898 14.4774 308.204 14.5784C308.507 14.6793 308.798 14.8035 309.07 14.951C309.345 15.0946 309.598 15.2615 309.83 15.4478C310.063 15.638 310.273 15.8398 310.455 16.0611C310.638 16.2784 310.793 16.5113 310.917 16.7558C311.045 17.0004 311.142 17.2488 311.205 17.5088C311.27 17.7689 311.302 18.0289 311.302 18.2929Z" fill="white"/>
<path d="M284.388 15.1878C283.693 15.1878 283.126 14.6212 283.126 13.9186C283.126 13.2937 282.622 12.7853 282.001 12.7853C281.38 12.7853 280.875 13.2937 280.875 13.9186C280.875 14.6212 280.308 15.1878 279.61 15.1878C278.915 15.1878 278.348 14.6212 278.348 13.9186C278.348 11.8886 279.986 10.2429 282.001 10.2429C284.015 10.2429 285.653 11.8886 285.653 13.9186C285.653 14.6212 285.086 15.1878 284.388 15.1878Z" fill="#4E5660"/>
<path d="M305.747 15.1878C305.049 15.1878 304.482 14.6212 304.482 13.9186C304.482 13.2937 303.977 12.7853 303.356 12.7853C302.735 12.7853 302.231 13.2937 302.231 13.9186C302.231 14.6212 301.664 15.1878 300.969 15.1878C300.271 15.1878 299.704 14.6212 299.704 13.9186C299.704 11.8886 301.342 10.2429 303.356 10.2429C305.371 10.2429 307.009 11.8886 307.009 13.9186C307.009 14.6212 306.442 15.1878 305.747 15.1878Z" fill="#4E5660"/>
<path d="M292.679 19.1584C291.343 19.1584 290.07 18.5762 289.193 17.5632C288.735 17.0314 288.789 16.2279 289.313 15.7699C289.841 15.3081 290.637 15.3624 291.099 15.8903C291.495 16.3522 292.073 16.6161 292.679 16.6161C293.284 16.6161 293.862 16.3522 294.262 15.8903C294.72 15.3624 295.516 15.3081 296.044 15.7699C296.568 16.2279 296.626 17.0314 296.164 17.5632C295.287 18.5762 294.014 19.1584 292.679 19.1584Z" fill="#4E5660"/>
<mask id="mask1_130_419" style="mask-type:luminance" maskUnits="userSpaceOnUse" x="300" y="16" width="56" height="52">
<path d="M300.569 16.426H356V67.1018H300.569V16.426Z" fill="white"/>
</mask>
<g mask="url(#mask1_130_419)">
<path d="M328.36 16.9189C343.44 16.9189 356 22.089 356 37.8903C356 44.5547 353.764 49.3249 350.05 52.6164C349.374 53.2141 349.087 54.1379 349.32 55.0112C349.98 57.4681 350.927 60.0454 352.227 62.4558C353.229 64.3033 351.878 66.5313 349.79 66.473C344.732 66.3333 339.213 63.9618 335.079 59.436C334.586 58.9004 333.88 58.6093 333.154 58.6714C331.594 58.7995 329.994 58.8577 328.36 58.8577C313.281 58.8577 300.721 53.6915 300.721 37.8903C300.721 22.089 313.285 16.9189 328.36 16.9189Z" fill="#8DAEE1"/>
</g>
<path d="M319.682 37.6923C314.969 34.6259 308.798 32.856 301.299 32.4058C300.919 34.0748 300.721 35.8952 300.721 37.8902C300.721 53.6876 313.285 58.8576 328.36 58.8576C328.985 58.8576 329.606 58.846 330.223 58.8305C330.227 58.7179 330.227 58.6092 330.227 58.5005C330.227 49.3715 326.583 42.1753 319.682 37.6923Z" fill="#6A95D6"/>
<path d="M337.354 45.1213L329.991 25.4929C329.987 25.4813 329.983 25.4697 329.979 25.458C329.715 24.8098 329.09 24.3906 328.395 24.3906H328.391C327.697 24.3906 327.076 24.8098 326.812 25.458C326.808 25.4697 326.804 25.4774 326.8 25.4891L319.371 45.1174C319.123 45.7734 319.449 46.507 320.101 46.7593C320.753 47.0077 321.483 46.6777 321.731 46.0218L323.272 41.9541H333.464L334.99 46.0179C335.18 46.5264 335.661 46.8408 336.17 46.8408C336.321 46.8408 336.469 46.8136 336.616 46.7593C337.268 46.5108 337.598 45.7773 337.354 45.1213ZM324.234 39.4117L328.391 28.4273L332.51 39.4117H324.234Z" fill="white"/>
<mask id="mask2_130_419" style="mask-type:luminance" maskUnits="userSpaceOnUse" x="269" y="37" width="57" height="51">
<path d="M269.739 37.2925H325.411V87.1493H269.739V37.2925Z" fill="white"/>
</mask>
<g mask="url(#mask2_130_419)">
<path d="M297.379 37.5332C282.303 37.5332 269.739 42.6994 269.739 58.5006C269.739 65.165 271.975 69.9353 275.693 73.2267C276.365 73.8245 276.656 74.7521 276.419 75.6255C275.763 78.0785 274.812 80.6597 273.512 83.0661C272.515 84.9176 273.861 87.1455 275.953 87.0873C281.007 86.9437 286.526 84.576 290.664 80.0503C291.157 79.5108 291.86 79.2235 292.585 79.2818C294.146 79.4098 295.749 79.472 297.383 79.472C312.458 79.472 325.022 74.3019 325.022 58.5006C325.022 42.6994 312.458 37.5332 297.379 37.5332Z" fill="#FBF1CF"/>
</g>
<mask id="mask3_130_419" style="mask-type:luminance" maskUnits="userSpaceOnUse" x="269" y="38" width="34" height="50">
<path d="M269.739 38.2861H302.557V87.1493H269.739V38.2861Z" fill="white"/>
</mask>
<g mask="url(#mask3_130_419)">
<path d="M286.278 38.686C276.606 40.9528 269.739 46.8215 269.739 58.5007C269.739 65.1651 271.975 69.9354 275.693 73.2268C276.365 73.8245 276.656 74.7522 276.419 75.6255C275.763 78.0786 274.812 80.6597 273.512 83.0662C272.515 84.9176 273.861 87.1456 275.953 87.0873C281.007 86.9437 286.526 84.5761 290.664 80.0503C291.157 79.5108 291.86 79.2236 292.585 79.2818C294.146 79.4099 295.749 79.472 297.379 79.472C299.063 79.472 300.713 79.406 302.316 79.2702C283.945 73.6033 280.98 47.3921 286.278 38.686Z" fill="#FAE0BD"/>
</g>
<path d="M306.12 49.5967H298.664V46.2121C298.664 45.5096 298.097 44.9429 297.398 44.9429C296.7 44.9429 296.137 45.5096 296.137 46.2121V49.5967H288.677C287.978 49.5967 287.415 50.1634 287.415 50.8659C287.415 51.5685 287.978 52.139 288.677 52.139H301.012C300.736 55.2597 299.234 58.6792 296.971 61.6757C295.71 60.5384 294.685 59.2381 294.037 58.0116C293.707 57.3945 292.942 57.1577 292.325 57.4876C291.708 57.8175 291.475 58.5899 291.805 59.2071C292.574 60.6587 293.796 62.2346 295.341 63.6164C293.99 65.0603 292.461 66.3411 290.819 67.3581C290.225 67.7229 290.039 68.507 290.404 69.1047C290.641 69.4967 291.056 69.7102 291.479 69.7102C291.704 69.7102 291.933 69.652 292.139 69.5239C293.994 68.3789 295.768 66.8845 297.344 65.1651C298.85 66.1548 300.546 66.9156 302.347 67.2455C302.421 67.261 302.498 67.2649 302.572 67.2649C303.174 67.2649 303.706 66.838 303.814 66.2208C303.938 65.5299 303.484 64.8701 302.797 64.742C301.466 64.5013 300.17 63.9424 298.986 63.1972C299.389 62.6654 299.774 62.1182 300.135 61.5592C302.165 58.4192 303.329 55.1859 303.546 52.139H306.12C306.819 52.139 307.385 51.5685 307.385 50.8659C307.385 50.1634 306.819 49.5967 306.12 49.5967Z" fill="#4E5660"/>
<path d="M28.9088 67.535C30.0267 67.535 30.9194 67.8533 31.5948 68.4821C32.2662 69.1147 32.6039 69.9259 32.6039 70.9196V97.2201C32.6039 98.2254 32.2662 99.0444 31.5948 99.6732C30.9194 100.294 30.0267 100.605 28.9088 100.605C27.822 100.605 26.972 100.356 26.3626 99.8595C25.761 99.3626 25.3923 98.7028 25.2603 97.8722C23.7892 99.0444 22.1435 99.9022 20.3231 100.449C18.5105 100.985 16.7833 101.257 15.1375 101.257C12.0091 101.257 9.30765 100.543 7.03313 99.1142C4.76638 97.6859 3.02751 95.6753 1.8165 93.0747C0.605502 90.4781 0 87.4467 0 83.9767C0 80.6037 0.667604 77.6383 2.00281 75.0805C3.34578 72.5265 5.22051 70.5237 7.62311 69.072C10.0335 67.6243 12.8165 66.8984 15.9759 66.8984C17.3616 66.8984 18.8986 67.1585 20.5871 67.6747C22.2716 68.1948 23.8319 69.0177 25.2603 70.1433C25.4349 69.3593 25.8231 68.7266 26.4247 68.2492C27.0341 67.7756 27.8608 67.535 28.9088 67.535ZM15.9138 94.6894C17.8157 94.6894 19.6555 94.2702 21.4254 93.4318C23.2031 92.5857 24.4607 91.3359 25.1982 89.6901V78.4495C24.3792 76.8465 23.1488 75.6161 21.5031 74.7544C19.8573 73.885 18.1845 73.4503 16.4883 73.4503C13.7635 73.4503 11.5705 74.4517 9.90539 76.4467C8.23637 78.434 7.40575 80.9647 7.40575 84.0388C7.40575 87.2487 8.18203 89.826 9.7346 91.7706C11.2949 93.7191 13.356 94.6894 15.9138 94.6894Z" fill="white"/>
<path d="M58.1369 66.8984C61.1683 66.8984 63.7455 67.5622 65.8687 68.8857C67.9879 70.2015 69.6103 72.0297 70.7282 74.3663C71.8538 76.7068 72.4205 79.4354 72.4205 82.5483V97.2201C72.4205 98.2254 72.0945 99.0444 71.4424 99.6732C70.7981 100.294 69.8937 100.605 68.7254 100.605C67.6386 100.605 66.7459 100.294 66.055 99.6732C65.3718 99.0444 65.0303 98.2254 65.0303 97.2201V82.4086C65.0303 79.7304 64.386 77.5568 63.1051 75.8878C61.832 74.2227 59.8059 73.3882 57.0345 73.3882C56.2039 73.3882 55.218 73.6172 54.0691 74.0713C52.928 74.5293 51.8063 75.2124 50.7001 76.1207C49.59 77.0212 48.6817 78.1662 47.9675 79.5519C47.2534 80.9414 46.8963 82.5871 46.8963 84.489V97.2977C46.8963 99.5024 45.7047 100.605 43.3254 100.605C42.1959 100.605 41.276 100.317 40.5618 99.7353C39.8476 99.1453 39.4905 98.3341 39.4905 97.2977V70.8575C39.4905 69.7707 39.867 68.9478 40.6239 68.3889C41.3885 67.8222 42.2463 67.535 43.2012 67.535C44.1094 67.535 44.9556 67.8222 45.7318 68.3889C46.5081 68.9478 46.8963 69.7241 46.8963 70.7178V71.1835C48.7594 69.4446 50.6845 68.2957 52.6718 67.7368C54.6669 67.1779 56.4911 66.8984 58.1369 66.8984Z" fill="white"/>
<path d="M105.955 67.5349C107.08 67.5349 108.043 68.0279 108.842 69.0099C109.638 69.9841 109.797 71.1175 109.324 72.41L90.3668 109.641C89.932 110.456 89.377 111.104 88.7055 111.581C88.0301 112.055 87.3276 112.295 86.594 112.295C85.8566 112.295 85.1734 112.047 84.5446 111.55C83.912 111.053 83.4772 110.409 83.2405 109.625C82.9998 108.849 83.1007 108.03 83.5355 107.172L88.4726 97.4219L75.6795 72.6739C75.2874 71.8045 75.237 70.9816 75.5242 70.2053C75.8037 69.429 76.2617 68.7925 76.906 68.2957C77.5581 67.7911 78.2761 67.5349 79.0641 67.5349C79.755 67.5349 80.4226 67.7523 81.0669 68.187C81.719 68.6217 82.1925 69.1884 82.4952 69.8793L92.5093 89.4261L102.508 69.8172C102.807 69.1263 103.257 68.5713 103.859 68.1559C104.468 67.7445 105.167 67.5349 105.955 67.5349Z" fill="white"/>
<path d="M127.396 94.441C128.39 93.8743 129.283 93.6763 130.082 93.851C130.89 94.0296 131.542 94.4099 132.039 94.9999C132.535 95.5821 132.784 96.2575 132.784 97.0338C132.784 97.5927 132.605 98.1594 132.256 98.7261C131.914 99.285 131.375 99.7624 130.641 100.154C129.686 100.671 128.817 100.981 128.033 101.086C127.257 101.199 126.348 101.257 125.316 101.257C122.498 101.257 120.332 100.671 118.811 99.5024C117.297 98.334 116.257 96.8164 115.69 94.9533C115.131 93.0903 114.852 91.1185 114.852 89.038V73.7142H112.383C111.172 73.7142 110.272 73.3882 109.682 72.7361C109.103 72.084 108.812 71.3931 108.812 70.6556C108.812 69.8794 109.115 69.1652 109.713 68.5131C110.322 67.861 111.211 67.535 112.383 67.535H114.852V61.9613C114.852 60.8356 115.216 59.9895 115.954 59.4306C116.688 58.8639 117.53 58.5767 118.485 58.5767C119.393 58.5767 120.239 58.8639 121.015 59.4306C121.799 59.9895 122.195 60.8356 122.195 61.9613V67.535H127.257C128.382 67.535 129.248 67.861 129.849 68.5131C130.459 69.1652 130.765 69.8794 130.765 70.6556C130.765 71.4319 130.459 72.1383 129.849 72.7671C129.248 73.3998 128.382 73.7142 127.257 73.7142H122.195V89.038C122.195 89.9929 122.257 90.9128 122.382 91.8016C122.514 92.6943 122.809 93.4318 123.267 94.0218C123.721 94.604 124.404 94.8912 125.316 94.8912C125.657 94.8912 126.034 94.8408 126.449 94.736C126.861 94.6234 127.179 94.5264 127.396 94.441Z" fill="white"/>
<path d="M149.613 67.5349C150.781 67.5349 151.713 67.7911 152.408 68.2957C153.099 68.7925 153.448 69.5998 153.448 70.7177C153.448 71.7657 153.099 72.5924 152.408 73.2018C151.713 73.8034 150.781 74.1023 149.613 74.1023C146.881 74.1023 144.959 75.0765 143.853 77.0211C142.755 78.9696 142.207 81.6128 142.207 84.9547V97.2976C142.207 98.2525 141.858 99.0443 141.167 99.6731C140.472 100.294 139.63 100.605 138.636 100.605C137.507 100.605 136.595 100.294 135.904 99.6731C135.209 99.0443 134.864 98.2525 134.864 97.2976V70.8574C134.864 69.8133 135.26 69.0021 136.059 68.4199C136.867 67.8299 137.724 67.5349 138.636 67.5349C139.537 67.5349 140.352 67.8221 141.09 68.3888C141.835 68.9477 142.207 69.7706 142.207 70.8574V71.2456C143.158 69.9841 144.261 69.0525 145.514 68.4509C146.764 67.8415 148.13 67.5349 149.613 67.5349Z" fill="white"/>
<path d="M181.707 67.535C182.824 67.535 183.717 67.8533 184.392 68.4821C185.064 69.1147 185.402 69.9259 185.402 70.9196V97.2201C185.402 98.2254 185.064 99.0444 184.392 99.6732C183.717 100.294 182.824 100.605 181.707 100.605C180.62 100.605 179.77 100.356 179.16 99.8595C178.559 99.3626 178.19 98.7028 178.058 97.8722C176.587 99.0444 174.941 99.9022 173.121 100.449C171.308 100.985 169.581 101.257 167.935 101.257C164.807 101.257 162.105 100.543 159.831 99.1142C157.564 97.6859 155.825 95.6753 154.614 93.0747C153.403 90.4781 152.798 87.4467 152.798 83.9767C152.798 80.6037 153.465 77.6383 154.801 75.0805C156.144 72.5265 158.018 70.5237 160.421 69.072C162.831 67.6243 165.614 66.8984 168.774 66.8984C170.159 66.8984 171.696 67.1585 173.385 67.6747C175.069 68.1948 176.63 69.0177 178.058 70.1433C178.233 69.3593 178.621 68.7266 179.222 68.2492C179.832 67.7756 180.659 67.535 181.707 67.535ZM168.712 94.6894C170.613 94.6894 172.453 94.2702 174.223 93.4318C176.001 92.5857 177.258 91.3359 177.996 89.6901V78.4495C177.177 76.8465 175.947 75.6161 174.301 74.7544C172.655 73.885 170.982 73.4503 169.286 73.4503C166.561 73.4503 164.368 74.4517 162.703 76.4467C161.034 78.434 160.203 80.9647 160.203 84.0388C160.203 87.2487 160.98 89.826 162.532 91.7706C164.093 93.7191 166.154 94.6894 168.712 94.6894Z" fill="white"/>
<path d="M210.935 66.8984C213.966 66.8984 216.543 67.5622 218.666 68.8857C220.786 70.2015 222.408 72.0297 223.526 74.3663C224.652 76.7068 225.218 79.4354 225.218 82.5483V97.2201C225.218 98.2254 224.892 99.0444 224.24 99.6732C223.596 100.294 222.691 100.605 221.523 100.605C220.436 100.605 219.544 100.294 218.853 99.6732C218.17 99.0444 217.828 98.2254 217.828 97.2201V82.4086C217.828 79.7304 217.184 77.5568 215.903 75.8878C214.63 74.2227 212.604 73.3882 209.832 73.3882C209.002 73.3882 208.016 73.6172 206.867 74.0713C205.726 74.5293 204.604 75.2124 203.498 76.1207C202.388 77.0212 201.479 78.1662 200.765 79.5519C200.051 80.9414 199.694 82.5871 199.694 84.489V97.2977C199.694 99.5024 198.502 100.605 196.123 100.605C194.994 100.605 194.074 100.317 193.36 99.7353C192.645 99.1453 192.288 98.3341 192.288 97.2977V70.8575C192.288 69.7707 192.665 68.9478 193.422 68.3889C194.186 67.8222 195.044 67.535 195.999 67.535C196.907 67.535 197.753 67.8222 198.53 68.3889C199.306 68.9478 199.694 69.7241 199.694 70.7178V71.1835C201.557 69.4446 203.482 68.2957 205.47 67.7368C207.465 67.1779 209.289 66.8984 210.935 66.8984Z" fill="white"/>
<path d="M229.316 92.8729C229.013 91.6619 229.292 90.6915 230.154 89.9541C231.023 89.2205 231.978 88.8518 233.026 88.8518C233.803 88.8518 234.49 89.0808 235.091 89.5349C235.701 89.9929 236.162 90.6683 236.473 91.5687C236.729 92.3567 237.288 92.9971 238.15 93.4939C239.019 93.9908 240.028 94.3478 241.177 94.5652C242.326 94.7826 243.483 94.8912 244.655 94.8912C246.992 94.8912 248.878 94.472 250.306 93.6337C251.735 92.7875 252.449 91.7085 252.449 90.4043C252.449 89.4961 252.065 88.8285 251.3 88.4015C250.543 87.9668 249.549 87.664 248.319 87.4855C247.085 87.3108 245.777 87.1827 244.391 87.0973C242.567 86.9227 240.777 86.7053 239.019 86.4453C237.269 86.1891 235.681 85.7427 234.253 85.1101C232.824 84.4813 231.676 83.5497 230.806 82.3154C229.944 81.085 229.517 79.4083 229.517 77.2851C229.517 75.2047 230.123 73.3882 231.334 71.8356C232.545 70.2753 234.253 69.0643 236.457 68.2026C238.67 67.3332 241.228 66.8984 244.127 66.8984C245.823 66.8984 247.644 67.0615 249.592 67.3797C251.537 67.7019 253.342 68.3656 255.011 69.367C256.676 70.3607 257.902 71.8977 258.69 73.9781C258.989 74.8398 258.962 75.6045 258.613 76.2759C258.271 76.9513 257.763 77.4637 257.091 77.813C256.416 78.1546 255.733 78.3253 255.042 78.3253C254.265 78.3253 253.629 78.1778 253.132 77.8751C252.635 77.5646 252.208 77.0445 251.859 76.307C251.475 75.3987 250.819 74.7311 249.887 74.3042C248.956 73.8695 247.954 73.6017 246.891 73.4969C245.835 73.3843 244.911 73.3261 244.127 73.3261C241.961 73.3261 240.219 73.6948 238.895 74.4284C237.579 75.1659 236.923 76.1362 236.923 77.3472C236.923 78.3952 237.269 79.1016 237.963 79.4742C238.654 79.8391 239.597 80.0487 240.789 80.1108C241.977 80.1729 243.308 80.2932 244.779 80.4679C246.6 80.6852 248.397 80.9259 250.167 81.1821C251.944 81.4421 253.571 81.8885 255.042 82.5173C256.52 83.1383 257.689 84.0698 258.55 85.3119C259.42 86.5462 259.855 88.2424 259.855 90.4043C259.855 92.5275 259.21 94.4099 257.929 96.0557C256.656 97.7014 254.879 98.9823 252.604 99.8905C250.337 100.799 247.686 101.257 244.655 101.257C243.308 101.257 241.845 101.156 240.261 100.962C238.685 100.764 237.148 100.38 235.65 99.7974C234.16 99.2074 232.848 98.3651 231.722 97.2667C230.593 96.1605 229.789 94.6972 229.316 92.8729Z" fill="white"/>
<path d="M52.9932 135.164H58.334V135.94H52.0772V121.595H52.9932V135.164Z" fill="white"/>
<path d="M60.5548 135.164H65.8956V135.94H59.6388V121.595H60.5548V135.164Z" fill="white"/>
<path d="M80.5835 121.905V135.94H79.6675V123.83L74.2645 135.94H73.5348L68.1164 123.83V135.94H67.2003V121.905H68.1785L73.9074 134.729L79.6209 121.905H80.5835Z" fill="white"/>
<path d="M89.1593 127.867V128.675H81.4741V127.867H89.1593Z" fill="white"/>
<path d="M93.1718 127.774C93.5134 126.873 94.0917 126.14 94.9107 125.569C95.7258 124.991 96.7156 124.7 97.8761 124.7C98.9086 124.7 99.8324 124.933 100.64 125.398C101.447 125.864 102.076 126.528 102.534 127.386C103 128.247 103.232 129.245 103.232 130.382C103.232 131.531 103 132.54 102.534 133.41C102.076 134.271 101.447 134.939 100.64 135.412C99.8324 135.878 98.9086 136.111 97.8761 136.111C96.7156 136.111 95.7219 135.828 94.8952 135.257C94.0762 134.679 93.5018 133.938 93.1718 133.037V135.94H92.2558V120.818H93.1718V127.774ZM102.285 130.382C102.285 129.381 102.091 128.511 101.711 127.774C101.327 127.04 100.787 126.481 100.096 126.097C99.4132 125.705 98.6252 125.507 97.7364 125.507C96.8747 125.507 96.0946 125.709 95.392 126.113C94.6972 126.509 94.1538 127.075 93.7618 127.82C93.3659 128.566 93.1718 129.42 93.1718 130.382C93.1718 131.368 93.3659 132.23 93.7618 132.975C94.1538 133.712 94.6972 134.279 95.392 134.683C96.0946 135.086 96.8747 135.288 97.7364 135.288C98.6252 135.288 99.4132 135.094 100.096 134.698C100.787 134.306 101.327 133.743 101.711 133.006C102.091 132.261 102.285 131.387 102.285 130.382Z" fill="white"/>
<path d="M104.659 130.382C104.659 129.245 104.884 128.248 105.342 127.386C105.796 126.528 106.429 125.864 107.236 125.399C108.051 124.933 108.979 124.7 110.015 124.7C111.183 124.7 112.177 124.991 112.996 125.569C113.811 126.14 114.386 126.866 114.719 127.743V124.84H115.635V135.941H114.719V133.022C114.386 133.922 113.807 134.664 112.981 135.242C112.162 135.824 111.172 136.111 110.015 136.111C108.979 136.111 108.051 135.878 107.236 135.413C106.429 134.939 105.796 134.272 105.342 133.41C104.884 132.54 104.659 131.531 104.659 130.382ZM114.719 130.382C114.719 129.42 114.518 128.566 114.114 127.821C113.71 127.075 113.159 126.509 112.468 126.113C111.773 125.709 110.997 125.507 110.139 125.507C109.239 125.507 108.447 125.705 107.764 126.097C107.081 126.482 106.545 127.04 106.165 127.774C105.792 128.512 105.606 129.381 105.606 130.382C105.606 131.388 105.792 132.261 106.165 133.006C106.545 133.744 107.081 134.306 107.764 134.698C108.455 135.094 109.247 135.288 110.139 135.288C110.997 135.288 111.773 135.087 112.468 134.683C113.171 134.279 113.718 133.713 114.114 132.975C114.518 132.23 114.719 131.368 114.719 130.382Z" fill="white"/>
<path d="M121.906 136.111C120.664 136.111 119.647 135.84 118.863 135.288C118.086 134.741 117.652 133.965 117.559 132.96H118.49C118.56 133.685 118.894 134.26 119.484 134.683C120.074 135.098 120.881 135.304 121.906 135.304C122.752 135.304 123.427 135.094 123.924 134.667C124.421 134.233 124.669 133.705 124.669 133.084C124.669 132.649 124.533 132.292 124.266 132.013C123.994 131.733 123.664 131.523 123.272 131.376C122.876 131.221 122.34 131.058 121.657 130.879C120.838 130.662 120.175 130.452 119.67 130.243C119.173 130.025 118.746 129.707 118.397 129.28C118.044 128.857 117.869 128.294 117.869 127.588C117.869 127.071 118.024 126.59 118.335 126.144C118.645 125.701 119.08 125.348 119.639 125.088C120.198 124.832 120.827 124.7 121.533 124.7C122.69 124.7 123.629 124.991 124.343 125.569C125.057 126.152 125.446 126.951 125.508 127.976H124.592C124.549 127.242 124.258 126.641 123.722 126.175C123.194 125.709 122.457 125.476 121.518 125.476C120.73 125.476 120.078 125.686 119.561 126.097C119.041 126.501 118.785 126.998 118.785 127.588C118.785 128.108 118.929 128.527 119.22 128.845C119.507 129.167 119.864 129.416 120.291 129.591C120.726 129.757 121.3 129.932 122.014 130.118C122.791 130.328 123.412 130.53 123.877 130.724C124.351 130.922 124.751 131.205 125.073 131.578C125.403 131.95 125.57 132.455 125.57 133.084C125.57 133.654 125.407 134.171 125.088 134.636C124.778 135.102 124.343 135.467 123.784 135.723C123.225 135.979 122.597 136.111 121.906 136.111Z" fill="white"/>
<path d="M137.574 129.653C137.574 130.142 137.562 130.507 137.543 130.755H127.964C127.983 131.749 128.197 132.587 128.6 133.27C129.012 133.945 129.551 134.45 130.215 134.792C130.886 135.133 131.616 135.304 132.404 135.304C133.499 135.304 134.415 135.036 135.152 134.497C135.886 133.961 136.348 133.231 136.534 132.308H137.496C137.279 133.437 136.72 134.353 135.82 135.056C134.919 135.762 133.778 136.111 132.404 136.111C131.368 136.111 130.44 135.878 129.625 135.413C128.818 134.947 128.181 134.287 127.715 133.425C127.249 132.556 127.017 131.543 127.017 130.382C127.017 129.226 127.242 128.217 127.7 127.355C128.154 126.497 128.79 125.841 129.609 125.383C130.424 124.929 131.356 124.7 132.404 124.7C133.468 124.7 134.391 124.929 135.168 125.383C135.952 125.841 136.549 126.447 136.953 127.2C137.364 127.956 137.574 128.775 137.574 129.653ZM136.658 129.994C136.697 129.012 136.522 128.185 136.13 127.51C135.746 126.827 135.218 126.322 134.547 125.989C133.883 125.647 133.165 125.476 132.388 125.476C131.612 125.476 130.89 125.647 130.23 125.989C129.578 126.322 129.039 126.827 128.616 127.51C128.2 128.185 127.983 129.012 127.964 129.994H136.658Z" fill="white"/>
<path d="M139.013 130.382C139.013 129.245 139.238 128.247 139.696 127.386C140.15 126.528 140.783 125.864 141.59 125.398C142.405 124.933 143.333 124.7 144.369 124.7C145.495 124.7 146.473 124.987 147.304 125.554C148.142 126.113 148.732 126.842 149.074 127.743V120.818H149.99V135.94H149.074V132.99C148.74 133.914 148.165 134.663 147.35 135.242C146.531 135.824 145.538 136.111 144.369 136.111C143.333 136.111 142.405 135.878 141.59 135.412C140.783 134.939 140.15 134.271 139.696 133.41C139.238 132.54 139.013 131.531 139.013 130.382ZM149.074 130.382C149.074 129.42 148.872 128.566 148.468 127.82C148.064 127.075 147.513 126.509 146.822 126.113C146.128 125.709 145.351 125.507 144.494 125.507C143.593 125.507 142.801 125.705 142.118 126.097C141.435 126.481 140.899 127.04 140.519 127.774C140.146 128.511 139.96 129.381 139.96 130.382C139.96 131.387 140.146 132.261 140.519 133.006C140.899 133.743 141.435 134.306 142.118 134.698C142.809 135.094 143.601 135.288 144.494 135.288C145.351 135.288 146.128 135.086 146.822 134.683C147.525 134.279 148.072 133.712 148.468 132.975C148.872 132.23 149.074 131.368 149.074 130.382Z" fill="white"/>
<path d="M158.918 125.647V132.975C158.918 133.794 159.065 134.357 159.368 134.667C159.667 134.97 160.198 135.118 160.967 135.118H162.209V135.941H160.812C159.849 135.941 159.139 135.715 158.685 135.257C158.227 134.803 158.002 134.043 158.002 132.975V125.647H156.325V124.84H158.002V122.03H158.918V124.84H162.209V125.647H158.918Z" fill="white"/>
<path d="M164.782 127.137C165.05 126.322 165.531 125.701 166.226 125.274C166.929 124.84 167.818 124.622 168.897 124.622V125.585H168.586C167.499 125.585 166.591 125.895 165.869 126.516C165.143 127.137 164.782 128.147 164.782 129.544V135.941H163.866V124.84H164.782V127.137Z" fill="white"/>
<path d="M169.668 130.382C169.668 129.245 169.893 128.248 170.351 127.386C170.805 126.528 171.438 125.864 172.245 125.399C173.06 124.933 173.988 124.7 175.024 124.7C176.193 124.7 177.186 124.991 178.005 125.569C178.82 126.14 179.395 126.866 179.729 127.743V124.84H180.645V135.941H179.729V133.022C179.395 133.922 178.817 134.664 177.99 135.242C177.171 135.824 176.181 136.111 175.024 136.111C173.988 136.111 173.06 135.878 172.245 135.413C171.438 134.939 170.805 134.272 170.351 133.41C169.893 132.54 169.668 131.531 169.668 130.382ZM179.729 130.382C179.729 129.42 179.527 128.566 179.123 127.821C178.72 127.075 178.168 126.509 177.477 126.113C176.783 125.709 176.006 125.507 175.149 125.507C174.248 125.507 173.456 125.705 172.773 126.097C172.09 126.482 171.554 127.04 171.174 127.774C170.801 128.512 170.615 129.381 170.615 130.382C170.615 131.388 170.801 132.261 171.174 133.006C171.554 133.744 172.09 134.306 172.773 134.698C173.464 135.094 174.256 135.288 175.149 135.288C176.006 135.288 176.783 135.087 177.477 134.683C178.18 134.279 178.727 133.713 179.123 132.975C179.527 132.23 179.729 131.368 179.729 130.382Z" fill="white"/>
<path d="M188.219 124.622C189.543 124.622 190.618 125.034 191.448 125.849C192.287 126.656 192.706 127.859 192.706 129.451V135.941H191.806V129.497C191.806 128.185 191.468 127.176 190.796 126.47C190.133 125.767 189.228 125.414 188.079 125.414C186.876 125.414 185.921 125.798 185.207 126.563C184.493 127.332 184.136 128.457 184.136 129.948V135.941H183.22V124.84H184.136V127.2C184.446 126.361 184.963 125.725 185.688 125.29C186.422 124.847 187.264 124.622 188.219 124.622Z" fill="white"/>
<path d="M198.871 136.111C197.628 136.111 196.612 135.84 195.827 135.288C195.051 134.741 194.616 133.965 194.523 132.96H195.455C195.525 133.685 195.859 134.26 196.448 134.683C197.038 135.098 197.846 135.304 198.871 135.304C199.717 135.304 200.392 135.094 200.889 134.667C201.386 134.233 201.634 133.705 201.634 133.084C201.634 132.649 201.498 132.292 201.23 132.013C200.959 131.733 200.629 131.523 200.237 131.376C199.841 131.221 199.305 131.058 198.622 130.879C197.803 130.662 197.139 130.452 196.635 130.243C196.138 130.025 195.711 129.707 195.362 129.28C195.008 128.857 194.834 128.294 194.834 127.588C194.834 127.071 194.989 126.59 195.3 126.144C195.61 125.701 196.045 125.348 196.604 125.088C197.163 124.832 197.791 124.7 198.498 124.7C199.655 124.7 200.594 124.991 201.308 125.569C202.022 126.152 202.41 126.951 202.472 127.976H201.556C201.514 127.242 201.223 126.641 200.687 126.175C200.159 125.709 199.422 125.476 198.482 125.476C197.694 125.476 197.042 125.686 196.526 126.097C196.006 126.501 195.75 126.998 195.75 127.588C195.75 128.108 195.893 128.527 196.185 128.845C196.472 129.167 196.829 129.416 197.256 129.591C197.691 129.757 198.265 129.932 198.979 130.118C199.755 130.328 200.376 130.53 200.842 130.724C201.316 130.922 201.716 131.205 202.038 131.578C202.368 131.95 202.535 132.455 202.535 133.084C202.535 133.654 202.372 134.171 202.053 134.636C201.743 135.102 201.308 135.467 200.749 135.723C200.19 135.979 199.561 136.111 198.871 136.111Z" fill="white"/>
<path d="M205.472 120.818V135.94H204.556V120.818H205.472Z" fill="white"/>
<path d="M207.496 130.382C207.496 129.245 207.722 128.248 208.18 127.386C208.634 126.528 209.266 125.864 210.074 125.399C210.889 124.933 211.817 124.7 212.853 124.7C214.021 124.7 215.015 124.991 215.834 125.569C216.649 126.14 217.223 126.866 217.557 127.743V124.84H218.473V135.941H217.557V133.022C217.223 133.922 216.645 134.664 215.818 135.242C214.999 135.824 214.01 136.111 212.853 136.111C211.817 136.111 210.889 135.878 210.074 135.413C209.266 134.939 208.634 134.272 208.18 133.41C207.722 132.54 207.496 131.531 207.496 130.382ZM217.557 130.382C217.557 129.42 217.355 128.566 216.952 127.821C216.548 127.075 215.997 126.509 215.306 126.113C214.611 125.709 213.835 125.507 212.977 125.507C212.077 125.507 211.285 125.705 210.602 126.097C209.918 126.482 209.383 127.04 209.002 127.774C208.63 128.512 208.444 129.381 208.444 130.382C208.444 131.388 208.63 132.261 209.002 133.006C209.383 133.744 209.918 134.306 210.602 134.698C211.293 135.094 212.084 135.288 212.977 135.288C213.835 135.288 214.611 135.087 215.306 134.683C216.008 134.279 216.556 133.713 216.952 132.975C217.355 132.23 217.557 131.368 217.557 130.382Z" fill="white"/>
<path d="M222.415 125.647V132.975C222.415 133.794 222.562 134.357 222.865 134.667C223.164 134.97 223.695 135.118 224.464 135.118H225.706V135.941H224.309C223.346 135.941 222.636 135.715 222.182 135.257C221.724 134.803 221.499 134.043 221.499 132.975V125.647H219.822V124.84H221.499V122.03H222.415V124.84H225.706V125.647H222.415Z" fill="white"/>
<path d="M227.829 122.371C227.612 122.371 227.425 122.305 227.27 122.169C227.123 122.026 227.053 121.828 227.053 121.579C227.053 121.342 227.123 121.152 227.27 121.005C227.425 120.861 227.612 120.787 227.829 120.787C228.046 120.787 228.225 120.861 228.372 121.005C228.528 121.152 228.605 121.342 228.605 121.579C228.605 121.828 228.528 122.026 228.372 122.169C228.225 122.305 228.046 122.371 227.829 122.371ZM228.279 124.84V135.94H227.363V124.84H228.279Z" fill="white"/>
<path d="M235.753 136.111C234.717 136.111 233.785 135.878 232.959 135.413C232.128 134.947 231.476 134.287 231.002 133.425C230.537 132.556 230.304 131.543 230.304 130.382C230.304 129.245 230.541 128.24 231.018 127.37C231.492 126.501 232.151 125.841 232.99 125.383C233.828 124.929 234.764 124.7 235.8 124.7C236.832 124.7 237.764 124.929 238.595 125.383C239.433 125.841 240.085 126.497 240.551 127.355C241.017 128.217 241.249 129.226 241.249 130.382C241.249 131.543 241.009 132.556 240.535 133.425C240.058 134.287 239.402 134.947 238.563 135.413C237.725 135.878 236.786 136.111 235.753 136.111ZM235.753 135.288C236.561 135.288 237.314 135.11 238.02 134.745C238.723 134.384 239.282 133.837 239.697 133.099C240.12 132.366 240.333 131.461 240.333 130.382C240.333 129.319 240.12 128.418 239.697 127.681C239.282 126.947 238.723 126.404 238.02 126.051C237.325 125.69 236.58 125.507 235.784 125.507C234.977 125.507 234.224 125.69 233.533 126.051C232.85 126.404 232.295 126.947 231.872 127.681C231.457 128.418 231.251 129.319 231.251 130.382C231.251 131.461 231.457 132.366 231.872 133.099C232.283 133.837 232.835 134.384 233.518 134.745C234.209 135.11 234.954 135.288 235.753 135.288Z" fill="white"/>
<path d="M248.283 124.622C249.606 124.622 250.681 125.034 251.512 125.849C252.35 126.656 252.77 127.859 252.77 129.451V135.941H251.869V129.497C251.869 128.185 251.531 127.176 250.86 126.47C250.196 125.767 249.292 125.414 248.143 125.414C246.94 125.414 245.985 125.798 245.271 126.563C244.557 127.332 244.199 128.457 244.199 129.948V135.941H243.283V124.84H244.199V127.2C244.51 126.361 245.026 125.725 245.752 125.29C246.486 124.847 247.328 124.622 248.283 124.622Z" fill="white"/>
<path d="M261.592 125.647V132.975C261.592 133.794 261.739 134.357 262.042 134.667C262.341 134.97 262.873 135.118 263.641 135.118H264.883V135.941H263.486C262.523 135.941 261.813 135.715 261.359 135.257C260.901 134.803 260.676 134.043 260.676 132.975V125.647H258.999V124.84H260.676V122.03H261.592V124.84H264.883V125.647H261.592Z" fill="white"/>
<path d="M271.415 136.111C270.379 136.111 269.448 135.878 268.621 135.413C267.79 134.947 267.138 134.287 266.665 133.425C266.199 132.556 265.966 131.543 265.966 130.382C265.966 129.245 266.203 128.24 266.68 127.37C267.154 126.501 267.813 125.841 268.652 125.383C269.49 124.929 270.426 124.7 271.462 124.7C272.494 124.7 273.426 124.929 274.257 125.383C275.095 125.841 275.747 126.497 276.213 127.355C276.679 128.217 276.912 129.226 276.912 130.382C276.912 131.543 276.671 132.556 276.197 133.425C275.72 134.287 275.064 134.947 274.226 135.413C273.387 135.878 272.448 136.111 271.415 136.111ZM271.415 135.288C272.223 135.288 272.976 135.11 273.682 134.745C274.385 134.384 274.944 133.837 275.359 133.099C275.782 132.366 275.996 131.461 275.996 130.382C275.996 129.319 275.782 128.418 275.359 127.681C274.944 126.947 274.385 126.404 273.682 126.051C272.987 125.69 272.242 125.507 271.447 125.507C270.639 125.507 269.886 125.69 269.195 126.051C268.512 126.404 267.957 126.947 267.534 127.681C267.119 128.418 266.913 129.319 266.913 130.382C266.913 131.461 267.119 132.366 267.534 133.099C267.945 133.837 268.497 134.384 269.18 134.745C269.871 135.11 270.616 135.288 271.415 135.288Z" fill="white"/>
<path d="M283.821 136.111C282.784 136.111 281.853 135.878 281.026 135.413C280.195 134.947 279.543 134.287 279.07 133.425C278.604 132.556 278.371 131.543 278.371 130.382C278.371 129.245 278.608 128.24 279.085 127.37C279.559 126.501 280.219 125.841 281.057 125.383C281.895 124.929 282.831 124.7 283.867 124.7C284.9 124.7 285.831 124.929 286.662 125.383C287.5 125.841 288.152 126.497 288.618 127.355C289.084 128.217 289.317 129.226 289.317 130.382C289.317 131.543 289.076 132.556 288.602 133.425C288.125 134.287 287.469 134.947 286.631 135.413C285.792 135.878 284.853 136.111 283.821 136.111ZM283.821 135.288C284.628 135.288 285.381 135.11 286.087 134.745C286.79 134.384 287.349 133.837 287.764 133.099C288.187 132.366 288.401 131.461 288.401 130.382C288.401 129.319 288.187 128.418 287.764 127.681C287.349 126.947 286.79 126.404 286.087 126.051C285.393 125.69 284.647 125.507 283.852 125.507C283.044 125.507 282.291 125.69 281.6 126.051C280.917 126.404 280.362 126.947 279.939 127.681C279.524 128.418 279.318 129.319 279.318 130.382C279.318 131.461 279.524 132.366 279.939 133.099C280.351 133.837 280.902 134.384 281.585 134.745C282.276 135.11 283.021 135.288 283.821 135.288Z" fill="white"/>
<path d="M292.267 120.818V135.94H291.351V120.818H292.267Z" fill="white"/>
<path d="M301.203 121.595L301.094 132.447H300.302L300.178 121.595H301.203ZM300.753 136.003C300.512 136.003 300.318 135.933 300.163 135.785C300.015 135.63 299.945 135.44 299.945 135.211C299.945 134.974 300.015 134.784 300.163 134.636C300.318 134.481 300.512 134.403 300.753 134.403C300.97 134.403 301.149 134.481 301.296 134.636C301.451 134.784 301.529 134.974 301.529 135.211C301.529 135.44 301.451 135.63 301.296 135.785C301.149 135.933 300.97 136.003 300.753 136.003Z" fill="white"/>
</svg>
